<svg width="149" height="38" viewBox="0 0 149 38" fill="none" xmlns="http://www.w3.org/2000/svg">
<ellipse cx="17.7374" cy="19.7459" rx="15.872" ry="12.0408" transform="rotate(37.8411 17.7374 19.7459)" fill="white"/>
<path d="M17.9316 25.1389C18.6629 25.1261 19.0882 24.4159 18.9545 23.9783C18.8209 23.5415 18.0748 23.2026 17.3435 23.2153C16.6122 23.2281 16.0795 23.5886 16.2132 24.0262C16.347 24.4637 17.2002 25.1516 17.9316 25.1389Z" fill="#7755FF"/>
<path d="M14.95 20.7963C14.4689 19.2229 14.2507 17.9078 12.697 17.9349C11.1426 17.9621 9.42316 20.4529 9.93105 22.1141C10.412 23.6871 11.6539 23.8417 13.2084 23.8145C14.5789 23.791 15.4579 22.4575 14.95 20.7963ZM13.298 21.7041C12.8409 21.7121 12.3679 21.3688 12.2342 20.9312C12.1006 20.4944 12.3591 20.1375 12.8166 20.1296C13.2733 20.1216 13.7463 20.4649 13.88 20.9025C14.0134 21.34 13.7547 21.6962 13.298 21.7041Z" fill="#7755FF"/>
<path d="M18.3595 26.5378C16.8969 26.5633 15.6133 25.9708 15.8273 26.6707C16.0413 27.3706 17.5236 28.3112 18.8944 28.2873C20.2648 28.2633 21.1328 27.1934 20.9457 26.5814C20.7316 25.8811 19.8222 26.5123 18.3595 26.5378Z" fill="#7755FF"/>
<path d="M18.7308 17.8297C17.2682 17.8552 17.7609 19.1647 18.2422 20.7389C18.7234 22.3131 20.312 23.6039 21.8668 23.5768C23.3295 23.5512 24.5566 23.354 24.0756 21.7806C23.5929 20.2056 20.2841 17.8026 18.7308 17.8297ZM20.428 21.5798C19.9713 21.5877 19.4983 21.2444 19.3645 20.8068C19.231 20.3701 19.4895 20.0132 19.9466 20.0052C20.4036 19.9972 20.8766 20.3406 21.0104 20.7781C21.1442 21.2157 20.8846 21.5718 20.428 21.5798Z" fill="#7755FF"/>
<path d="M11.9976 5.72906C3.13034 5.88384 -1.91497 12.8281 0.677828 21.3088C3.27087 29.7902 12.4864 36.4848 21.3532 36.33C30.2208 36.1752 35.2659 29.2314 32.673 20.7503C30.0802 12.2696 20.8656 5.57427 11.9976 5.72906ZM25.1263 19.2123C25.0344 19.2139 24.9434 19.2155 24.8512 19.2171C25.6294 20.2583 26.2512 21.3902 26.5721 22.4398C27.882 26.7244 24.3447 28.9833 19.1349 29.0742C13.9247 29.1652 9.05119 27.0523 7.74149 22.7685C7.42071 21.7193 7.34745 20.5779 7.48363 19.5203C7.39181 19.5219 7.3008 19.5235 7.20898 19.5251C5.43027 19.1166 3.98138 17.3835 3.99496 15.6257C4.00854 13.8678 5.30678 12.7021 7.08602 13.1109C8.26319 13.3541 9.26141 14.2156 9.88357 15.3475C11.052 14.3598 12.5751 13.63 14.4948 13.5965C16.4145 13.563 18.3381 14.1447 20.1216 15.1688C20.0751 14.1148 20.5128 13.1402 21.5287 12.8588C23.0405 12.3929 25.0331 13.5008 26.1161 15.2395C27.0183 16.9814 26.6379 18.746 25.1263 19.2123Z" fill="#4B20B8"/>
<ellipse cx="19.7374" cy="17.2376" rx="15.872" ry="12.0408" transform="rotate(37.8411 19.7374 17.2376)" fill="white"/>
<path d="M20.9316 21.6306C21.6629 21.6178 22.0882 20.9076 21.9545 20.47C21.8209 20.0332 21.0748 19.6943 20.3435 19.707C19.6122 19.7198 19.0795 20.0803 19.2132 20.5179C19.347 20.9554 20.2002 21.6433 20.9316 21.6306Z" fill="#7755FF"/>
<path d="M17.95 17.288C17.4689 15.7146 17.2507 14.3995 15.697 14.4266C14.1426 14.4538 12.4232 16.9446 12.931 18.6058C13.412 20.1788 14.6539 20.3334 16.2084 20.3062C17.5789 20.2827 18.4579 18.9492 17.95 17.288ZM16.298 18.1958C15.8409 18.2038 15.3679 17.8605 15.2342 17.4229C15.1006 16.9861 15.3591 16.6292 15.8166 16.6213C16.2733 16.6133 16.7463 16.9566 16.88 17.3942C17.0134 17.8317 16.7547 18.1879 16.298 18.1958Z" fill="#7755FF"/>
<path d="M21.3595 23.0295C19.8969 23.055 18.6133 22.4625 18.8273 23.1624C19.0413 23.8623 20.5236 24.8029 21.8944 24.779C23.2648 24.755 24.1328 23.6851 23.9457 23.0731C23.7316 22.3728 22.8222 23.004 21.3595 23.0295Z" fill="#7755FF"/>
<path d="M21.7308 14.3214C20.2682 14.3469 20.7609 15.6564 21.2422 17.2306C21.7234 18.8048 23.312 20.0956 24.8668 20.0685C26.3295 20.0429 27.5566 19.8457 27.0756 18.2723C26.5929 16.6973 23.2841 14.2943 21.7308 14.3214ZM23.428 18.0715C22.9713 18.0794 22.4983 17.7361 22.3645 17.2985C22.231 16.8618 22.4895 16.5049 22.9466 16.4969C23.4036 16.4889 23.8766 16.8323 24.0104 17.2698C24.1442 17.7074 23.8846 18.0635 23.428 18.0715Z" fill="#7755FF"/>
<path d="M22.6294 10.9085C20.9405 10.0554 19.1433 9.57871 17.3486 9.61004C15.5463 9.64149 14.0871 10.2475 12.9362 11.0906C12.2378 10.1309 11.2451 9.38238 10.0723 9.13802C7.92527 8.64837 6.48895 10.0676 6.47411 11.9884C6.4596 13.8669 7.94552 15.7979 9.91293 16.3988C9.85616 17.3417 9.95545 18.3331 10.2416 19.2689C10.9499 21.5858 12.6368 23.3265 14.8206 24.4567C16.9814 25.5749 19.6121 26.0907 22.2811 26.0441C24.9498 25.9975 27.239 25.3961 28.6968 24.2148C30.1702 23.0208 30.7805 21.2401 30.072 18.9228C29.7858 17.9867 29.2811 17.0024 28.6514 16.0718C30.2311 15.4101 30.5268 13.4615 29.5774 11.6284L29.5661 11.6067L29.5529 11.5855C28.3696 9.68566 26.0863 8.33178 24.2598 8.89038C23.2564 9.17094 22.7547 9.99069 22.6294 10.9085ZM4.17775 17.7918C1.66569 9.57518 6.55262 2.84887 15.1437 2.69891C23.7357 2.54894 32.661 9.03414 35.173 17.2507C37.6852 25.4677 32.7986 32.1936 24.207 32.3436C15.6163 32.4935 6.69004 26.0091 4.17775 17.7918Z" fill="#7755FF" stroke="#5B27DD"/>
<path d="M136.278 26.6798V11.3198H138.88L146.006 22.1465V11.3198H148.608V26.6798H146.006L138.88 15.8532V26.6798H136.278Z" fill="white"/>
<path d="M127.323 26.9996C126.1 26.9996 125.023 26.7507 124.091 26.2529C123.167 25.7551 122.442 25.0547 121.915 24.1516C121.396 23.2485 121.137 22.1889 121.137 20.9729V11.3409L123.739 11.3196V20.9089C123.739 21.4849 123.835 22.0005 124.027 22.4556C124.226 22.9107 124.493 23.2982 124.827 23.6182C125.162 23.9311 125.546 24.1694 125.979 24.3329C126.413 24.4965 126.861 24.5782 127.323 24.5782C127.8 24.5782 128.251 24.4965 128.678 24.3329C129.112 24.1622 129.496 23.9205 129.83 23.6076C130.164 23.2876 130.427 22.9 130.619 22.4449C130.811 21.9898 130.907 21.4778 130.907 20.9089V11.3196H133.51V20.9729C133.51 22.1889 133.247 23.2485 132.721 24.1516C132.202 25.0547 131.476 25.7551 130.545 26.2529C129.62 26.7507 128.546 26.9996 127.323 26.9996Z" fill="white"/>
<path d="M110.184 26.6796V11.3196H119.432V13.8902H112.754V17.7196H118.152V20.2796H112.754V26.6796H110.184Z" fill="white"/>
<path d="M104.344 26.6798V24.0452H106.979V26.6798H104.344Z" fill="#FF2EE7"/>
<path d="M95.7102 26.9999C94.1742 26.9999 92.8586 26.6657 91.7635 25.9972C90.6684 25.3217 89.8257 24.383 89.2355 23.1812C88.6524 21.9794 88.3608 20.5857 88.3608 18.9999C88.3608 17.4141 88.6524 16.0203 89.2355 14.8185C89.8257 13.6168 90.6684 12.6817 91.7635 12.0132C92.8586 11.3377 94.1742 10.9999 95.7102 10.9999C97.2462 10.9999 98.5617 11.3377 99.6568 12.0132C100.759 12.6817 101.602 13.6168 102.185 14.8185C102.775 16.0203 103.07 17.4141 103.07 18.9999C103.07 20.5857 102.775 21.9794 102.185 23.1812C101.602 24.383 100.759 25.3217 99.6568 25.9972C98.5617 26.6657 97.2462 26.9999 95.7102 26.9999ZM95.7102 24.5785C96.7413 24.5857 97.5982 24.3581 98.2808 23.8959C98.9706 23.4337 99.4862 22.783 99.8275 21.9439C100.176 21.1048 100.35 20.1234 100.35 18.9999C100.35 17.8763 100.176 16.9021 99.8275 16.0772C99.4862 15.2452 98.9706 14.5981 98.2808 14.1359C97.5982 13.6737 96.7413 13.4354 95.7102 13.4212C94.6791 13.4141 93.8222 13.6417 93.1395 14.1039C92.4568 14.5661 91.9413 15.2168 91.5928 16.0559C91.2515 16.895 91.0808 17.8763 91.0808 18.9999C91.0808 20.1234 91.2515 21.1012 91.5928 21.9332C91.9342 22.7581 92.4462 23.4017 93.1288 23.8639C93.8186 24.3261 94.6791 24.5643 95.7102 24.5785Z" fill="white"/>
<path d="M75.8027 26.6798V11.3198H82.1494C82.2987 11.3198 82.4907 11.3269 82.7254 11.3412C82.9601 11.3483 83.177 11.3696 83.3761 11.4052C84.265 11.5403 84.9974 11.8354 85.5734 12.2905C86.1565 12.7456 86.5867 13.3216 86.8641 14.0185C87.1485 14.7083 87.2907 15.4763 87.2907 16.3225C87.2907 17.1616 87.1485 17.9296 86.8641 18.6265C86.5796 19.3163 86.1458 19.8887 85.5627 20.3438C84.9867 20.7989 84.2578 21.094 83.3761 21.2292C83.177 21.2576 82.9565 21.2789 82.7147 21.2932C82.4801 21.3074 82.2916 21.3145 82.1494 21.3145H78.3734V26.6798H75.8027ZM78.3734 18.9145H82.0427C82.185 18.9145 82.345 18.9074 82.5227 18.8932C82.7005 18.8789 82.8641 18.8505 83.0134 18.8078C83.4401 18.7012 83.7743 18.5127 84.0161 18.2425C84.265 17.9723 84.4392 17.6665 84.5387 17.3252C84.6454 16.9838 84.6987 16.6496 84.6987 16.3225C84.6987 15.9954 84.6454 15.6612 84.5387 15.3198C84.4392 14.9714 84.265 14.662 84.0161 14.3918C83.7743 14.1216 83.4401 13.9332 83.0134 13.8265C82.8641 13.7838 82.7005 13.7589 82.5227 13.7518C82.345 13.7376 82.185 13.7305 82.0427 13.7305H78.3734V18.9145Z" fill="white"/>
<path d="M66.5329 26.9999C64.9969 26.9999 63.6814 26.6657 62.5863 25.9972C61.4911 25.3217 60.6485 24.383 60.0583 23.1812C59.4751 21.9794 59.1836 20.5857 59.1836 18.9999C59.1836 17.4141 59.4751 16.0203 60.0583 14.8185C60.6485 13.6168 61.4911 12.6817 62.5863 12.0132C63.6814 11.3377 64.9969 10.9999 66.5329 10.9999C68.0689 10.9999 69.3845 11.3377 70.4796 12.0132C71.5818 12.6817 72.4245 13.6168 73.0076 14.8185C73.5978 16.0203 73.8929 17.4141 73.8929 18.9999C73.8929 20.5857 73.5978 21.9794 73.0076 23.1812C72.4245 24.383 71.5818 25.3217 70.4796 25.9972C69.3845 26.6657 68.0689 26.9999 66.5329 26.9999ZM66.5329 24.5785C67.564 24.5857 68.4209 24.3581 69.1036 23.8959C69.7934 23.4337 70.3089 22.783 70.6503 21.9439C70.9987 21.1048 71.1729 20.1234 71.1729 18.9999C71.1729 17.8763 70.9987 16.9021 70.6503 16.0772C70.3089 15.2452 69.7934 14.5981 69.1036 14.1359C68.4209 13.6737 67.564 13.4354 66.5329 13.4212C65.5018 13.4141 64.6449 13.6417 63.9623 14.1039C63.2796 14.5661 62.764 15.2168 62.4156 16.0559C62.0743 16.895 61.9036 17.8763 61.9036 18.9999C61.9036 20.1234 62.0743 21.1012 62.4156 21.9332C62.7569 22.7581 63.2689 23.4017 63.9516 23.8639C64.6414 24.3261 65.5018 24.5643 66.5329 24.5785Z" fill="white"/>
<path d="M42 26.6796V11.3196H44.3147L49.6267 22.1996L54.9387 11.3196H57.2533V26.6796H54.8533V16.8342L50.1387 26.6796H49.1147L44.4107 16.8342V26.6796H42Z" fill="white"/>
</svg>
